<svg width="346" height="56" viewBox="0 0 346 56" fill="none" xmlns="http://www.w3.org/2000/svg">
<path d="M0 14C0 6.26803 6.26801 0 14 0H331.354C339.086 0 345.354 6.26801 345.354 14V41.9869C345.354 49.7188 339.086 55.9869 331.354 55.9869H14C6.26803 55.9869 0 49.7189 0 41.9869V14Z" fill="#E17100"/>
<path d="M116.635 24.6623V23.3299C116.635 22.9765 116.775 22.6376 117.025 22.3877C117.275 22.1378 117.614 21.9974 117.967 21.9974H119.299" stroke="white" stroke-width="1.33243" stroke-linecap="round" stroke-linejoin="round"/>
<path d="M125.962 21.9974H127.294C127.647 21.9974 127.986 22.1378 128.236 22.3877C128.486 22.6376 128.627 22.9765 128.627 23.3299V24.6623" stroke="white" stroke-width="1.33243" stroke-linecap="round" stroke-linejoin="round"/>
<path d="M128.627 31.3245V32.6569C128.627 33.0103 128.486 33.3492 128.236 33.5991C127.986 33.8489 127.647 33.9893 127.294 33.9893H125.962" stroke="white" stroke-width="1.33243" stroke-linecap="round" stroke-linejoin="round"/>
<path d="M119.299 33.9893H117.967C117.614 33.9893 117.275 33.8489 117.025 33.5991C116.775 33.3492 116.635 33.0103 116.635 32.6569V31.3245" stroke="white" stroke-width="1.33243" stroke-linecap="round" stroke-linejoin="round"/>
<path d="M147.227 28.826L148.478 28.7167C148.537 29.218 148.674 29.6304 148.888 29.954C149.107 30.273 149.444 30.5328 149.9 30.7333C150.355 30.9292 150.868 31.0272 151.438 31.0272C151.944 31.0272 152.39 30.952 152.778 30.8016C153.165 30.6512 153.452 30.4462 153.639 30.1864C153.83 29.9221 153.926 29.635 153.926 29.3251C153.926 29.0106 153.835 28.7372 153.653 28.5048C153.47 28.2678 153.17 28.0695 152.75 27.91C152.481 27.8052 151.887 27.6434 150.966 27.4247C150.045 27.2014 149.401 26.9917 149.031 26.7958C148.553 26.5451 148.195 26.2352 147.958 25.8661C147.726 25.4924 147.61 25.0754 147.61 24.6151C147.61 24.1093 147.753 23.6376 148.04 23.2001C148.327 22.758 148.747 22.4231 149.298 22.1952C149.85 21.9673 150.462 21.8534 151.137 21.8534C151.88 21.8534 152.534 21.9742 153.099 22.2157C153.669 22.4527 154.106 22.8036 154.411 23.2684C154.717 23.7333 154.881 24.2596 154.904 24.8475L153.632 24.9432C153.564 24.3098 153.331 23.8313 152.935 23.5077C152.543 23.1841 151.962 23.0223 151.192 23.0223C150.39 23.0223 149.804 23.1705 149.435 23.4667C149.07 23.7583 148.888 24.1115 148.888 24.5262C148.888 24.8863 149.018 25.1825 149.278 25.4149C149.533 25.6473 150.198 25.8866 151.274 26.1327C152.354 26.3742 153.094 26.5861 153.495 26.7684C154.079 27.0373 154.509 27.3791 154.787 27.7938C155.065 28.204 155.204 28.6779 155.204 29.2157C155.204 29.7489 155.052 30.2525 154.746 30.7264C154.441 31.1958 154.001 31.5627 153.427 31.827C152.857 32.0868 152.215 32.2167 151.499 32.2167C150.592 32.2167 149.831 32.0845 149.216 31.8202C148.605 31.5559 148.125 31.1594 147.774 30.6307C147.427 30.0975 147.245 29.496 147.227 28.826ZM159.545 30.9452L159.723 32.0321C159.377 32.105 159.067 32.1415 158.793 32.1415C158.347 32.1415 158 32.0708 157.754 31.9296C157.508 31.7883 157.335 31.6037 157.235 31.3759C157.134 31.1434 157.084 30.6581 157.084 29.9198V25.743H156.182V24.786H157.084V22.9882L158.308 22.2499V24.786H159.545V25.743H158.308V29.9882C158.308 30.3391 158.328 30.5647 158.369 30.6649C158.415 30.7652 158.486 30.8449 158.581 30.9042C158.682 30.9634 158.823 30.993 159.005 30.993C159.142 30.993 159.322 30.9771 159.545 30.9452ZM165.492 31.1503C165.037 31.5376 164.597 31.8111 164.173 31.9706C163.754 32.1301 163.303 32.2098 162.82 32.2098C162.022 32.2098 161.409 32.0162 160.981 31.6288C160.552 31.2369 160.338 30.7378 160.338 30.1317C160.338 29.7762 160.418 29.4527 160.577 29.161C160.741 28.8648 160.953 28.6278 161.213 28.4501C161.477 28.2723 161.774 28.1379 162.102 28.0468C162.343 27.983 162.708 27.9214 163.196 27.8622C164.189 27.7437 164.92 27.6024 165.39 27.4384C165.394 27.2697 165.397 27.1626 165.397 27.1171C165.397 26.6158 165.281 26.2626 165.048 26.0575C164.734 25.7795 164.267 25.6405 163.647 25.6405C163.068 25.6405 162.64 25.743 162.362 25.9481C162.088 26.1486 161.885 26.5064 161.753 27.0214L160.55 26.8573C160.659 26.3423 160.839 25.9276 161.09 25.6132C161.341 25.2941 161.703 25.0503 162.177 24.8817C162.651 24.7085 163.2 24.6219 163.824 24.6219C164.444 24.6219 164.948 24.6949 165.335 24.8407C165.723 24.9865 166.007 25.1711 166.19 25.3944C166.372 25.6132 166.5 25.8912 166.573 26.2284C166.614 26.438 166.634 26.8163 166.634 27.3632V29.0038C166.634 30.1477 166.659 30.8723 166.709 31.1776C166.764 31.4784 166.869 31.7678 167.024 32.0458H165.739C165.611 31.7906 165.529 31.4921 165.492 31.1503ZM165.39 28.4022C164.943 28.5845 164.273 28.7395 163.38 28.8671C162.874 28.94 162.517 29.022 162.307 29.1132C162.097 29.2043 161.935 29.3387 161.822 29.5165C161.708 29.6897 161.651 29.8833 161.651 30.0975C161.651 30.4257 161.774 30.6991 162.02 30.9178C162.27 31.1366 162.635 31.246 163.114 31.246C163.587 31.246 164.009 31.1434 164.378 30.9384C164.747 30.7287 165.018 30.4439 165.192 30.0839C165.324 29.8059 165.39 29.3957 165.39 28.8534V28.4022ZM168.534 32.0458V24.786H169.642V25.8866C169.924 25.3716 170.184 25.0321 170.421 24.868C170.663 24.704 170.927 24.6219 171.214 24.6219C171.629 24.6219 172.05 24.7541 172.479 25.0184L172.055 26.16C171.754 25.9823 171.453 25.8934 171.153 25.8934C170.884 25.8934 170.642 25.9755 170.428 26.1395C170.214 26.299 170.061 26.5223 169.97 26.8094C169.833 27.2469 169.765 27.7255 169.765 28.245V32.0458H168.534ZM175.897 30.9452L176.074 32.0321C175.728 32.105 175.418 32.1415 175.145 32.1415C174.698 32.1415 174.352 32.0708 174.106 31.9296C173.86 31.7883 173.686 31.6037 173.586 31.3759C173.486 31.1434 173.436 30.6581 173.436 29.9198V25.743H172.533V24.786H173.436V22.9882L174.659 22.2499V24.786H175.897V25.743H174.659V29.9882C174.659 30.3391 174.68 30.5647 174.721 30.6649C174.767 30.7652 174.837 30.8449 174.933 30.9042C175.033 30.9634 175.174 30.993 175.357 30.993C175.493 30.993 175.673 30.9771 175.897 30.9452ZM179.281 32.0458L183.129 22.0243H184.558L188.659 32.0458H187.149L185.98 29.0106H181.789L180.689 32.0458H179.281ZM182.172 27.9305H185.57L184.524 25.1552C184.205 24.3121 183.968 23.6193 183.813 23.077C183.685 23.7196 183.505 24.3576 183.273 24.9911L182.172 27.9305ZM189.74 32.0458V22.0243H194.183C195.076 22.0243 195.755 22.1154 196.22 22.2977C196.685 22.4755 197.056 22.7922 197.334 23.2479C197.612 23.7037 197.751 24.2072 197.751 24.7587C197.751 25.4696 197.521 26.0689 197.061 26.5565C196.601 27.0441 195.89 27.354 194.928 27.4862C195.279 27.6548 195.545 27.8212 195.728 27.9852C196.115 28.3407 196.482 28.785 196.828 29.3182L198.572 32.0458H196.904L195.577 29.9608C195.19 29.3593 194.871 28.899 194.62 28.58C194.37 28.2609 194.144 28.0376 193.944 27.91C193.748 27.7824 193.547 27.6936 193.342 27.6434C193.192 27.6115 192.946 27.5956 192.604 27.5956H191.066V32.0458H189.74ZM191.066 26.4471H193.916C194.522 26.4471 194.996 26.3856 195.338 26.2626C195.68 26.135 195.94 25.9344 196.117 25.661C196.295 25.383 196.384 25.0822 196.384 24.7587C196.384 24.2847 196.211 23.8951 195.865 23.5897C195.523 23.2844 194.98 23.1317 194.238 23.1317H191.066V26.4471ZM206.023 32.0458V23.2069H202.721V22.0243H210.664V23.2069H207.349V32.0458H206.023ZM209.858 28.4159C209.858 27.0715 210.231 26.0757 210.979 25.4286C211.603 24.8908 212.364 24.6219 213.262 24.6219C214.26 24.6219 215.076 24.9501 215.709 25.6063C216.343 26.258 216.659 27.1604 216.659 28.3134C216.659 29.2476 216.518 29.9836 216.236 30.5214C215.958 31.0546 215.55 31.4693 215.012 31.7655C214.479 32.0617 213.895 32.2098 213.262 32.2098C212.246 32.2098 211.423 31.884 210.794 31.2323C210.17 30.5806 209.858 29.6418 209.858 28.4159ZM211.122 28.4159C211.122 29.3456 211.325 30.0428 211.731 30.5077C212.136 30.968 212.647 31.1981 213.262 31.1981C213.873 31.1981 214.381 30.9657 214.786 30.5009C215.192 30.036 215.395 29.3274 215.395 28.3749C215.395 27.4771 215.19 26.7981 214.78 26.3378C214.374 25.8729 213.868 25.6405 213.262 25.6405C212.647 25.6405 212.136 25.8706 211.731 26.3309C211.325 26.7912 211.122 27.4862 211.122 28.4159ZM222.866 32.0458V30.9794C222.301 31.7997 221.533 32.2098 220.563 32.2098C220.134 32.2098 219.733 32.1278 219.36 31.9637C218.99 31.7997 218.715 31.5946 218.532 31.3485C218.355 31.0979 218.229 30.7925 218.156 30.4325C218.106 30.191 218.081 29.8081 218.081 29.2841V24.786H219.312V28.8124C219.312 29.455 219.337 29.8879 219.387 30.1112C219.464 30.4348 219.628 30.69 219.879 30.8768C220.13 31.0591 220.44 31.1503 220.809 31.1503C221.178 31.1503 221.524 31.0568 221.848 30.87C222.171 30.6786 222.399 30.4211 222.531 30.0975C222.668 29.7694 222.737 29.2955 222.737 28.6757V24.786H223.967V32.0458H222.866ZM225.888 32.0458V24.786H226.995V25.8866C227.278 25.3716 227.538 25.0321 227.775 24.868C228.016 24.704 228.281 24.6219 228.568 24.6219C228.982 24.6219 229.404 24.7541 229.832 25.0184L229.408 26.16C229.108 25.9823 228.807 25.8934 228.506 25.8934C228.237 25.8934 227.996 25.9755 227.781 26.1395C227.567 26.299 227.415 26.5223 227.323 26.8094C227.187 27.2469 227.118 27.7255 227.118 28.245V32.0458H225.888Z" fill="white"/>
</svg>
